<svg width="23" height="23" viewBox="0 0 23 23" fill="none" xmlns="http://www.w3.org/2000/svg">
<g clip-path="url(#clip0_402_693)">
<path d="M22.7758 11.7649C22.7758 10.9832 22.7124 10.1972 22.5771 9.42813H11.73V13.8566H17.9416C17.6839 15.2848 16.8557 16.5483 15.6429 17.3512V20.2246H19.3488C21.525 18.2216 22.7758 15.2637 22.7758 11.7649Z" fill="#4285F4"/>
<path d="M11.73 23.0008C14.8316 23.0008 17.4472 21.9824 19.353 20.2246L15.6471 17.3512C14.6161 18.0526 13.285 18.4498 11.7342 18.4498C8.73404 18.4498 6.19022 16.4257 5.27749 13.7045H1.45331V16.6666C3.40554 20.5499 7.38184 23.0008 11.73 23.0008Z" fill="#34A853"/>
<path d="M5.27325 13.7044C4.79153 12.2762 4.79153 10.7296 5.27325 9.30136V6.3392H1.45329C-0.177791 9.5887 -0.177791 13.4171 1.45329 16.6666L5.27325 13.7044Z" fill="#FBBC04"/>
<path d="M11.73 4.55176C13.3695 4.5264 14.9541 5.14334 16.1415 6.27581L19.4248 2.99251C17.3458 1.04028 14.5865 -0.0330299 11.73 0.000774972C7.38184 0.000774972 3.40554 2.45163 1.45331 6.33919L5.27326 9.30134C6.18177 6.57583 8.72981 4.55176 11.73 4.55176Z" fill="#FF0303"/>
</g>
<defs>
<clipPath id="clip0_402_693">
<rect width="23" height="23" fill="white"/>
</clipPath>
</defs>
</svg>
